<svg xmlns="http://www.w3.org/2000/svg" version="1.1" xmlns:xlink="http://www.w3.org/1999/xlink" xmlns:svgjs="http://svgjs.dev/svgjs" width="1440" height="800" preserveAspectRatio="none" viewBox="0 0 1440 800"><g mask="url(&quot;#SvgjsMask1502&quot;)" fill="none"><g><path d="M94.5 409.5L115.5 430.5L136.5 430.5L157.5 430.5L178.5 451.5M157.5 409.5L178.5 409.5M-10.5 409.5L10.5 409.5L31.5 409.5L52.5 409.5L73.5 409.5L94.5 409.5L115.5 409.5L136.5 409.5L157.5 409.5L178.5 430.5L199.5 430.5L220.5 430.5" stroke="rgba(86, 78, 117, 1)" stroke-width="3.5"></path><path d="M217 430.5 a3.5 3.5 0 1 0 7 0 a3.5 3.5 0 1 0 -7 0zM175 451.5 a3.5 3.5 0 1 0 7 0 a3.5 3.5 0 1 0 -7 0zM175 409.5 a3.5 3.5 0 1 0 7 0 a3.5 3.5 0 1 0 -7 0z" fill="rgba(86, 78, 117, 1)"></path><path d="M-10.5 388.5L10.5 388.5L31.5 388.5L52.5 388.5L73.5 388.5L94.5 388.5" stroke="rgba(86, 78, 117, 1)" stroke-width="3.5"></path><path d="M91 388.5 a3.5 3.5 0 1 0 7 0 a3.5 3.5 0 1 0 -7 0z" fill="rgba(86, 78, 117, 1)"></path><path d="M136.5 472.5L157.5 451.5M241.5 472.5L262.5 451.5L283.5 451.5M73.5 430.5L94.5 430.5M-10.5 430.5L10.5 430.5L31.5 430.5L52.5 430.5L73.5 430.5L94.5 451.5L115.5 451.5L136.5 472.5L157.5 472.5L178.5 472.5L199.5 472.5L220.5 472.5L241.5 472.5L262.5 472.5" stroke="rgba(66, 68, 90, 1)" stroke-width="3.5"></path><path d="M259 472.5 a3.5 3.5 0 1 0 7 0 a3.5 3.5 0 1 0 -7 0zM154 451.5 a3.5 3.5 0 1 0 7 0 a3.5 3.5 0 1 0 -7 0zM280 451.5 a3.5 3.5 0 1 0 7 0 a3.5 3.5 0 1 0 -7 0zM91 430.5 a3.5 3.5 0 1 0 7 0 a3.5 3.5 0 1 0 -7 0z" fill="rgba(66, 68, 90, 1)"></path><path d="M430.5 346.5L451.5 367.5L472.5 367.5M598.5 346.5L619.5 367.5L640.5 367.5L661.5 367.5L682.5 367.5L703.5 367.5L724.5 388.5L745.5 409.5L766.5 409.5L787.5 409.5L808.5 388.5L829.5 388.5L850.5 388.5M577.5 346.5L598.5 367.5L619.5 388.5L640.5 388.5L661.5 388.5L682.5 388.5M325.5 367.5L346.5 388.5L367.5 388.5L388.5 388.5L409.5 388.5M346.5 367.5L367.5 367.5L388.5 367.5L409.5 367.5L430.5 367.5M493.5 346.5L514.5 367.5L535.5 367.5M703.5 346.5L724.5 346.5L745.5 346.5L766.5 346.5L787.5 346.5L808.5 346.5L829.5 346.5L850.5 346.5L871.5 346.5L892.5 346.5L913.5 346.5M220.5 367.5L241.5 388.5L262.5 388.5L283.5 388.5L304.5 388.5L325.5 409.5L346.5 430.5L367.5 430.5M136.5 367.5L157.5 388.5M-10.5 367.5L10.5 367.5L31.5 367.5L52.5 367.5L73.5 367.5L94.5 367.5L115.5 367.5L136.5 367.5L157.5 367.5L178.5 367.5L199.5 367.5L220.5 367.5L241.5 367.5L262.5 367.5L283.5 367.5L304.5 367.5L325.5 367.5L346.5 367.5L367.5 346.5L388.5 346.5L409.5 346.5L430.5 346.5L451.5 346.5L472.5 346.5L493.5 346.5L514.5 346.5L535.5 346.5L556.5 346.5L577.5 346.5L598.5 346.5L619.5 346.5L640.5 346.5L661.5 346.5L682.5 346.5L703.5 346.5L724.5 367.5L745.5 367.5L766.5 367.5" stroke="rgba(66, 68, 90, 1)" stroke-width="3.5"></path><path d="M763 367.5 a3.5 3.5 0 1 0 7 0 a3.5 3.5 0 1 0 -7 0zM469 367.5 a3.5 3.5 0 1 0 7 0 a3.5 3.5 0 1 0 -7 0zM847 388.5 a3.5 3.5 0 1 0 7 0 a3.5 3.5 0 1 0 -7 0zM679 388.5 a3.5 3.5 0 1 0 7 0 a3.5 3.5 0 1 0 -7 0zM406 388.5 a3.5 3.5 0 1 0 7 0 a3.5 3.5 0 1 0 -7 0zM427 367.5 a3.5 3.5 0 1 0 7 0 a3.5 3.5 0 1 0 -7 0zM532 367.5 a3.5 3.5 0 1 0 7 0 a3.5 3.5 0 1 0 -7 0zM910 346.5 a3.5 3.5 0 1 0 7 0 a3.5 3.5 0 1 0 -7 0zM364 430.5 a3.5 3.5 0 1 0 7 0 a3.5 3.5 0 1 0 -7 0zM154 388.5 a3.5 3.5 0 1 0 7 0 a3.5 3.5 0 1 0 -7 0z" fill="rgba(66, 68, 90, 1)"></path><path d="M661.5 472.5L682.5 493.5L703.5 493.5L724.5 493.5M556.5 472.5L577.5 451.5L598.5 451.5L619.5 451.5L640.5 451.5L661.5 451.5L682.5 451.5L703.5 451.5L724.5 430.5M346.5 493.5L367.5 472.5L388.5 472.5L409.5 472.5L430.5 472.5L451.5 451.5L472.5 451.5L493.5 451.5L514.5 451.5L535.5 451.5L556.5 451.5M493.5 472.5L514.5 493.5L535.5 493.5L556.5 493.5L577.5 493.5L598.5 493.5L619.5 493.5L640.5 493.5L661.5 493.5L682.5 514.5M325.5 493.5L346.5 514.5L367.5 514.5L388.5 514.5M451.5 472.5L472.5 493.5L493.5 514.5M52.5 472.5L73.5 451.5M304.5 493.5L325.5 472.5L346.5 472.5M703.5 472.5L724.5 472.5L745.5 472.5L766.5 472.5L787.5 472.5L808.5 472.5L829.5 472.5L850.5 472.5L871.5 472.5L892.5 472.5L913.5 472.5M-10.5 451.5L10.5 451.5L31.5 472.5L52.5 472.5L73.5 472.5L94.5 472.5L115.5 493.5L136.5 493.5L157.5 493.5L178.5 493.5L199.5 493.5L220.5 493.5L241.5 493.5L262.5 493.5L283.5 493.5L304.5 493.5L325.5 493.5L346.5 493.5L367.5 493.5L388.5 493.5L409.5 493.5L430.5 493.5L451.5 472.5L472.5 472.5L493.5 472.5L514.5 472.5L535.5 472.5L556.5 472.5L577.5 472.5L598.5 472.5L619.5 472.5L640.5 472.5L661.5 472.5L682.5 472.5L703.5 472.5L724.5 451.5L745.5 451.5" stroke="rgba(86, 78, 117, 1)" stroke-width="3.5"></path><path d="M742 451.5 a3.5 3.5 0 1 0 7 0 a3.5 3.5 0 1 0 -7 0zM721 493.5 a3.5 3.5 0 1 0 7 0 a3.5 3.5 0 1 0 -7 0zM721 430.5 a3.5 3.5 0 1 0 7 0 a3.5 3.5 0 1 0 -7 0zM553 451.5 a3.5 3.5 0 1 0 7 0 a3.5 3.5 0 1 0 -7 0zM679 514.5 a3.5 3.5 0 1 0 7 0 a3.5 3.5 0 1 0 -7 0zM385 514.5 a3.5 3.5 0 1 0 7 0 a3.5 3.5 0 1 0 -7 0zM490 514.5 a3.5 3.5 0 1 0 7 0 a3.5 3.5 0 1 0 -7 0zM70 451.5 a3.5 3.5 0 1 0 7 0 a3.5 3.5 0 1 0 -7 0zM343 472.5 a3.5 3.5 0 1 0 7 0 a3.5 3.5 0 1 0 -7 0zM910 472.5 a3.5 3.5 0 1 0 7 0 a3.5 3.5 0 1 0 -7 0z" fill="rgba(86, 78, 117, 1)"></path><path d="M199.5 346.5L220.5 325.5L241.5 325.5L262.5 325.5M808.5 325.5L829.5 304.5L850.5 304.5L871.5 304.5M283.5 346.5L304.5 325.5L325.5 325.5L346.5 325.5M178.5 346.5L199.5 325.5M787.5 325.5L808.5 304.5L829.5 283.5L850.5 283.5L871.5 283.5L892.5 283.5L913.5 283.5M-10.5 346.5L10.5 346.5L31.5 346.5L52.5 346.5L73.5 346.5L94.5 346.5L115.5 346.5L136.5 346.5L157.5 346.5L178.5 346.5L199.5 346.5L220.5 346.5L241.5 346.5L262.5 346.5L283.5 346.5L304.5 346.5L325.5 346.5L346.5 346.5L367.5 325.5L388.5 325.5L409.5 325.5L430.5 325.5L451.5 325.5L472.5 325.5L493.5 325.5L514.5 325.5L535.5 325.5L556.5 325.5L577.5 325.5L598.5 325.5L619.5 325.5L640.5 325.5L661.5 325.5L682.5 325.5L703.5 325.5L724.5 325.5L745.5 325.5L766.5 325.5L787.5 325.5L808.5 325.5L829.5 325.5" stroke="rgba(66, 68, 90, 1)" stroke-width="3.5"></path><path d="M826 325.5 a3.5 3.5 0 1 0 7 0 a3.5 3.5 0 1 0 -7 0zM259 325.5 a3.5 3.5 0 1 0 7 0 a3.5 3.5 0 1 0 -7 0zM868 304.5 a3.5 3.5 0 1 0 7 0 a3.5 3.5 0 1 0 -7 0zM343 325.5 a3.5 3.5 0 1 0 7 0 a3.5 3.5 0 1 0 -7 0zM196 325.5 a3.5 3.5 0 1 0 7 0 a3.5 3.5 0 1 0 -7 0zM910 283.5 a3.5 3.5 0 1 0 7 0 a3.5 3.5 0 1 0 -7 0z" fill="rgba(66, 68, 90, 1)"></path><path d="M220.5 514.5L241.5 535.5L262.5 535.5L283.5 535.5M-10.5 472.5L10.5 472.5L31.5 493.5L52.5 493.5L73.5 493.5L94.5 493.5L115.5 514.5L136.5 514.5L157.5 514.5L178.5 514.5L199.5 514.5L220.5 514.5L241.5 514.5L262.5 514.5" stroke="rgba(66, 68, 90, 1)" stroke-width="3.5"></path><path d="M259 514.5 a3.5 3.5 0 1 0 7 0 a3.5 3.5 0 1 0 -7 0zM280 535.5 a3.5 3.5 0 1 0 7 0 a3.5 3.5 0 1 0 -7 0z" fill="rgba(66, 68, 90, 1)"></path><path d="M535.5 304.5L556.5 283.5L577.5 283.5L598.5 283.5L619.5 283.5L640.5 262.5L661.5 262.5L682.5 262.5L703.5 262.5L724.5 262.5L745.5 262.5L766.5 262.5M703.5 304.5L724.5 283.5L745.5 283.5L766.5 283.5L787.5 283.5L808.5 283.5L829.5 262.5M661.5 304.5L682.5 283.5L703.5 283.5M430.5 304.5L451.5 283.5L472.5 283.5L493.5 283.5L514.5 283.5L535.5 283.5L556.5 262.5L577.5 262.5L598.5 262.5L619.5 262.5M157.5 325.5L178.5 325.5M640.5 304.5L661.5 283.5M-10.5 325.5L10.5 325.5L31.5 325.5L52.5 325.5L73.5 325.5L94.5 325.5L115.5 325.5L136.5 325.5L157.5 325.5L178.5 304.5L199.5 304.5L220.5 304.5L241.5 304.5L262.5 304.5L283.5 304.5L304.5 304.5L325.5 304.5L346.5 304.5L367.5 304.5L388.5 304.5L409.5 304.5L430.5 304.5L451.5 304.5L472.5 304.5L493.5 304.5L514.5 304.5L535.5 304.5L556.5 304.5L577.5 304.5L598.5 304.5L619.5 304.5L640.5 304.5L661.5 304.5L682.5 304.5L703.5 304.5L724.5 304.5L745.5 304.5L766.5 304.5" stroke="rgba(66, 68, 90, 1)" stroke-width="3.5"></path><path d="M763 304.5 a3.5 3.5 0 1 0 7 0 a3.5 3.5 0 1 0 -7 0zM763 262.5 a3.5 3.5 0 1 0 7 0 a3.5 3.5 0 1 0 -7 0zM826 262.5 a3.5 3.5 0 1 0 7 0 a3.5 3.5 0 1 0 -7 0zM700 283.5 a3.5 3.5 0 1 0 7 0 a3.5 3.5 0 1 0 -7 0zM616 262.5 a3.5 3.5 0 1 0 7 0 a3.5 3.5 0 1 0 -7 0zM175 325.5 a3.5 3.5 0 1 0 7 0 a3.5 3.5 0 1 0 -7 0zM658 283.5 a3.5 3.5 0 1 0 7 0 a3.5 3.5 0 1 0 -7 0z" fill="rgba(66, 68, 90, 1)"></path><path d="M430.5 577.5L451.5 556.5L472.5 556.5M535.5 619.5L556.5 598.5M367.5 577.5L388.5 556.5M325.5 556.5L346.5 535.5L367.5 535.5L388.5 535.5L409.5 535.5L430.5 535.5L451.5 535.5L472.5 535.5L493.5 535.5M199.5 535.5L220.5 535.5M472.5 577.5L493.5 598.5M388.5 577.5L409.5 598.5L430.5 598.5L451.5 598.5L472.5 598.5L493.5 619.5L514.5 619.5L535.5 640.5M-10.5 493.5L10.5 493.5L31.5 514.5L52.5 514.5L73.5 514.5L94.5 514.5L115.5 535.5L136.5 535.5L157.5 535.5L178.5 535.5L199.5 535.5L220.5 556.5L241.5 556.5L262.5 556.5L283.5 556.5L304.5 556.5L325.5 556.5L346.5 556.5L367.5 577.5L388.5 577.5L409.5 577.5L430.5 577.5L451.5 577.5L472.5 577.5L493.5 577.5L514.5 598.5L535.5 619.5L556.5 619.5L577.5 619.5" stroke="rgba(66, 68, 90, 1)" stroke-width="3.5"></path><path d="M574 619.5 a3.5 3.5 0 1 0 7 0 a3.5 3.5 0 1 0 -7 0zM469 556.5 a3.5 3.5 0 1 0 7 0 a3.5 3.5 0 1 0 -7 0zM553 598.5 a3.5 3.5 0 1 0 7 0 a3.5 3.5 0 1 0 -7 0zM385 556.5 a3.5 3.5 0 1 0 7 0 a3.5 3.5 0 1 0 -7 0zM490 535.5 a3.5 3.5 0 1 0 7 0 a3.5 3.5 0 1 0 -7 0zM217 535.5 a3.5 3.5 0 1 0 7 0 a3.5 3.5 0 1 0 -7 0zM490 598.5 a3.5 3.5 0 1 0 7 0 a3.5 3.5 0 1 0 -7 0zM532 640.5 a3.5 3.5 0 1 0 7 0 a3.5 3.5 0 1 0 -7 0z" fill="rgba(66, 68, 90, 1)"></path><path d="M514.5 241.5L535.5 262.5M346.5 283.5L367.5 262.5L388.5 262.5L409.5 262.5M199.5 283.5L220.5 262.5L241.5 262.5L262.5 241.5M304.5 283.5L325.5 262.5L346.5 262.5L367.5 241.5L388.5 241.5M493.5 241.5L514.5 262.5M136.5 304.5L157.5 283.5L178.5 262.5L199.5 262.5M-10.5 304.5L10.5 304.5L31.5 304.5L52.5 304.5L73.5 304.5L94.5 304.5L115.5 304.5L136.5 304.5L157.5 304.5L178.5 283.5L199.5 283.5L220.5 283.5L241.5 283.5L262.5 283.5L283.5 283.5L304.5 283.5L325.5 283.5L346.5 283.5L367.5 283.5L388.5 283.5L409.5 283.5L430.5 262.5L451.5 241.5L472.5 241.5L493.5 241.5L514.5 241.5L535.5 241.5" stroke="rgba(86, 78, 117, 1)" stroke-width="3.5"></path><path d="M532 241.5 a3.5 3.5 0 1 0 7 0 a3.5 3.5 0 1 0 -7 0zM532 262.5 a3.5 3.5 0 1 0 7 0 a3.5 3.5 0 1 0 -7 0zM406 262.5 a3.5 3.5 0 1 0 7 0 a3.5 3.5 0 1 0 -7 0zM259 241.5 a3.5 3.5 0 1 0 7 0 a3.5 3.5 0 1 0 -7 0zM385 241.5 a3.5 3.5 0 1 0 7 0 a3.5 3.5 0 1 0 -7 0zM511 262.5 a3.5 3.5 0 1 0 7 0 a3.5 3.5 0 1 0 -7 0zM196 262.5 a3.5 3.5 0 1 0 7 0 a3.5 3.5 0 1 0 -7 0z" fill="rgba(86, 78, 117, 1)"></path><path d="M325.5 577.5L346.5 598.5L367.5 619.5L388.5 619.5M304.5 577.5L325.5 598.5L346.5 619.5L367.5 640.5M241.5 577.5L262.5 598.5L283.5 598.5L304.5 598.5L325.5 619.5M-10.5 514.5L10.5 514.5L31.5 535.5L52.5 535.5L73.5 535.5L94.5 535.5L115.5 556.5L136.5 556.5L157.5 556.5L178.5 556.5L199.5 556.5L220.5 577.5L241.5 577.5L262.5 577.5L283.5 577.5L304.5 577.5L325.5 577.5L346.5 577.5L367.5 598.5" stroke="rgba(86, 78, 117, 1)" stroke-width="3.5"></path><path d="M364 598.5 a3.5 3.5 0 1 0 7 0 a3.5 3.5 0 1 0 -7 0zM385 619.5 a3.5 3.5 0 1 0 7 0 a3.5 3.5 0 1 0 -7 0zM364 640.5 a3.5 3.5 0 1 0 7 0 a3.5 3.5 0 1 0 -7 0zM322 619.5 a3.5 3.5 0 1 0 7 0 a3.5 3.5 0 1 0 -7 0z" fill="rgba(86, 78, 117, 1)"></path><path d="M-10.5 283.5L10.5 283.5L31.5 283.5L52.5 283.5L73.5 283.5L94.5 283.5L115.5 283.5" stroke="rgba(86, 78, 117, 1)" stroke-width="3.5"></path><path d="M112 283.5 a3.5 3.5 0 1 0 7 0 a3.5 3.5 0 1 0 -7 0z" fill="rgba(86, 78, 117, 1)"></path><path d="M-10.5 535.5L10.5 535.5L31.5 556.5L52.5 556.5L73.5 556.5L94.5 556.5L115.5 577.5L136.5 577.5L157.5 577.5L178.5 577.5L199.5 577.5L220.5 598.5" stroke="rgba(86, 78, 117, 1)" stroke-width="3.5"></path><path d="M217 598.5 a3.5 3.5 0 1 0 7 0 a3.5 3.5 0 1 0 -7 0z" fill="rgba(86, 78, 117, 1)"></path><path d="M-10.5 262.5L10.5 262.5L31.5 262.5L52.5 262.5L73.5 262.5L94.5 262.5L115.5 262.5" stroke="rgba(66, 68, 90, 1)" stroke-width="3.5"></path><path d="M112 262.5 a3.5 3.5 0 1 0 7 0 a3.5 3.5 0 1 0 -7 0z" fill="rgba(66, 68, 90, 1)"></path><path d="M199.5 241.5L220.5 241.5L241.5 241.5M262.5 220.5L283.5 220.5L304.5 220.5L325.5 220.5L346.5 220.5M136.5 241.5L157.5 262.5M-10.5 241.5L10.5 241.5L31.5 241.5L52.5 241.5L73.5 241.5L94.5 241.5L115.5 241.5L136.5 241.5L157.5 241.5L178.5 241.5L199.5 241.5L220.5 220.5L241.5 220.5L262.5 220.5L283.5 241.5L304.5 241.5" stroke="rgba(86, 78, 117, 1)" stroke-width="3.5"></path><path d="M301 241.5 a3.5 3.5 0 1 0 7 0 a3.5 3.5 0 1 0 -7 0zM238 241.5 a3.5 3.5 0 1 0 7 0 a3.5 3.5 0 1 0 -7 0zM343 220.5 a3.5 3.5 0 1 0 7 0 a3.5 3.5 0 1 0 -7 0zM154 262.5 a3.5 3.5 0 1 0 7 0 a3.5 3.5 0 1 0 -7 0z" fill="rgba(86, 78, 117, 1)"></path><path d="M10.5 577.5L31.5 598.5L52.5 598.5L73.5 598.5M157.5 598.5L178.5 619.5L199.5 619.5L220.5 640.5M262.5 619.5L283.5 640.5L304.5 640.5L325.5 661.5L346.5 661.5M-10.5 577.5L10.5 577.5L31.5 577.5L52.5 577.5L73.5 577.5L94.5 577.5L115.5 598.5L136.5 598.5L157.5 598.5L178.5 598.5L199.5 598.5L220.5 619.5L241.5 619.5L262.5 619.5L283.5 619.5" stroke="rgba(66, 68, 90, 1)" stroke-width="3.5"></path><path d="M280 619.5 a3.5 3.5 0 1 0 7 0 a3.5 3.5 0 1 0 -7 0zM70 598.5 a3.5 3.5 0 1 0 7 0 a3.5 3.5 0 1 0 -7 0zM217 640.5 a3.5 3.5 0 1 0 7 0 a3.5 3.5 0 1 0 -7 0zM343 661.5 a3.5 3.5 0 1 0 7 0 a3.5 3.5 0 1 0 -7 0z" fill="rgba(66, 68, 90, 1)"></path><path d="M115.5 220.5L136.5 199.5M199.5 199.5L220.5 178.5M157.5 220.5L178.5 220.5L199.5 220.5M-10.5 220.5L10.5 220.5L31.5 220.5L52.5 220.5L73.5 220.5L94.5 220.5L115.5 220.5L136.5 220.5L157.5 220.5L178.5 199.5L199.5 199.5L220.5 199.5L241.5 199.5L262.5 199.5" stroke="rgba(86, 78, 117, 1)" stroke-width="3.5"></path><path d="M259 199.5 a3.5 3.5 0 1 0 7 0 a3.5 3.5 0 1 0 -7 0zM133 199.5 a3.5 3.5 0 1 0 7 0 a3.5 3.5 0 1 0 -7 0zM217 178.5 a3.5 3.5 0 1 0 7 0 a3.5 3.5 0 1 0 -7 0zM196 220.5 a3.5 3.5 0 1 0 7 0 a3.5 3.5 0 1 0 -7 0z" fill="rgba(86, 78, 117, 1)"></path></g></g><defs><mask id="SvgjsMask1502"><rect width="1440" height="800" fill="#ffffff"></rect></mask></defs></svg>