<svg xmlns="http://www.w3.org/2000/svg" version="1.1" xmlns:xlink="http://www.w3.org/1999/xlink" xmlns:svgjs="http://svgjs.dev/svgjs" width="1440" height="800" preserveAspectRatio="none" viewBox="0 0 1440 800"><g mask="url(&quot;#SvgjsMask1493&quot;)" fill="none"><g><path d="M1291.5 409.5L1270.5 388.5M1039.5 409.5L1018.5 388.5L997.5 388.5L976.5 388.5L955.5 388.5M1102.5 388.5L1081.5 409.5L1060.5 409.5M997.5 409.5L976.5 430.5L955.5 430.5L934.5 430.5L913.5 430.5M1375.5 409.5L1354.5 388.5L1333.5 388.5L1312.5 388.5M1249.5 388.5L1228.5 409.5L1207.5 430.5L1186.5 430.5L1165.5 430.5M1459.5 409.5L1438.5 409.5L1417.5 409.5L1396.5 409.5L1375.5 409.5L1354.5 409.5L1333.5 409.5L1312.5 409.5L1291.5 409.5L1270.5 409.5L1249.5 388.5L1228.5 388.5L1207.5 388.5L1186.5 388.5L1165.5 388.5L1144.5 388.5L1123.5 388.5L1102.5 388.5L1081.5 388.5L1060.5 388.5L1039.5 409.5L1018.5 409.5L997.5 409.5L976.5 409.5L955.5 409.5L934.5 409.5" stroke="rgba(66, 68, 90, 1)" stroke-width="3.5"></path><path d="M931 409.5 a3.5 3.5 0 1 0 7 0 a3.5 3.5 0 1 0 -7 0zM1267 388.5 a3.5 3.5 0 1 0 7 0 a3.5 3.5 0 1 0 -7 0zM952 388.5 a3.5 3.5 0 1 0 7 0 a3.5 3.5 0 1 0 -7 0zM1057 409.5 a3.5 3.5 0 1 0 7 0 a3.5 3.5 0 1 0 -7 0zM910 430.5 a3.5 3.5 0 1 0 7 0 a3.5 3.5 0 1 0 -7 0zM1309 388.5 a3.5 3.5 0 1 0 7 0 a3.5 3.5 0 1 0 -7 0zM1162 430.5 a3.5 3.5 0 1 0 7 0 a3.5 3.5 0 1 0 -7 0z" fill="rgba(66, 68, 90, 1)"></path><path d="M1123.5 367.5L1102.5 346.5M1165.5 367.5L1144.5 346.5L1123.5 346.5M1417.5 388.5L1396.5 388.5L1375.5 388.5M1186.5 367.5L1165.5 346.5M1081.5 367.5L1060.5 346.5L1039.5 346.5L1018.5 346.5L997.5 346.5M1459.5 388.5L1438.5 388.5L1417.5 388.5L1396.5 367.5L1375.5 367.5L1354.5 367.5L1333.5 367.5L1312.5 367.5L1291.5 367.5L1270.5 367.5L1249.5 367.5L1228.5 367.5L1207.5 367.5L1186.5 367.5L1165.5 367.5L1144.5 367.5L1123.5 367.5L1102.5 367.5L1081.5 367.5L1060.5 367.5" stroke="rgba(86, 78, 117, 1)" stroke-width="3.5"></path><path d="M1057 367.5 a3.5 3.5 0 1 0 7 0 a3.5 3.5 0 1 0 -7 0zM1099 346.5 a3.5 3.5 0 1 0 7 0 a3.5 3.5 0 1 0 -7 0zM1120 346.5 a3.5 3.5 0 1 0 7 0 a3.5 3.5 0 1 0 -7 0zM1372 388.5 a3.5 3.5 0 1 0 7 0 a3.5 3.5 0 1 0 -7 0zM1162 346.5 a3.5 3.5 0 1 0 7 0 a3.5 3.5 0 1 0 -7 0zM994 346.5 a3.5 3.5 0 1 0 7 0 a3.5 3.5 0 1 0 -7 0z" fill="rgba(86, 78, 117, 1)"></path><path d="M1375.5 451.5L1354.5 430.5L1333.5 430.5M1396.5 451.5L1375.5 430.5M1459.5 430.5L1438.5 430.5L1417.5 430.5L1396.5 451.5L1375.5 451.5L1354.5 451.5L1333.5 451.5L1312.5 451.5" stroke="rgba(86, 78, 117, 1)" stroke-width="3.5"></path><path d="M1309 451.5 a3.5 3.5 0 1 0 7 0 a3.5 3.5 0 1 0 -7 0zM1330 430.5 a3.5 3.5 0 1 0 7 0 a3.5 3.5 0 1 0 -7 0zM1372 430.5 a3.5 3.5 0 1 0 7 0 a3.5 3.5 0 1 0 -7 0z" fill="rgba(86, 78, 117, 1)"></path><path d="M1081.5 304.5L1060.5 325.5M1312.5 346.5L1291.5 325.5L1270.5 325.5L1249.5 325.5M1102.5 304.5L1081.5 325.5M1039.5 283.5L1018.5 304.5L997.5 304.5M1375.5 346.5L1354.5 325.5L1333.5 325.5L1312.5 325.5M1144.5 304.5L1123.5 325.5L1102.5 325.5M1459.5 367.5L1438.5 367.5L1417.5 367.5L1396.5 346.5L1375.5 346.5L1354.5 346.5L1333.5 346.5L1312.5 346.5L1291.5 346.5L1270.5 346.5L1249.5 346.5L1228.5 346.5L1207.5 325.5L1186.5 325.5L1165.5 325.5L1144.5 304.5L1123.5 304.5L1102.5 304.5L1081.5 304.5L1060.5 304.5L1039.5 283.5L1018.5 283.5L997.5 283.5L976.5 283.5L955.5 283.5" stroke="rgba(66, 68, 90, 1)" stroke-width="3.5"></path><path d="M952 283.5 a3.5 3.5 0 1 0 7 0 a3.5 3.5 0 1 0 -7 0zM1057 325.5 a3.5 3.5 0 1 0 7 0 a3.5 3.5 0 1 0 -7 0zM1246 325.5 a3.5 3.5 0 1 0 7 0 a3.5 3.5 0 1 0 -7 0zM1078 325.5 a3.5 3.5 0 1 0 7 0 a3.5 3.5 0 1 0 -7 0zM994 304.5 a3.5 3.5 0 1 0 7 0 a3.5 3.5 0 1 0 -7 0zM1309 325.5 a3.5 3.5 0 1 0 7 0 a3.5 3.5 0 1 0 -7 0zM1099 325.5 a3.5 3.5 0 1 0 7 0 a3.5 3.5 0 1 0 -7 0z" fill="rgba(66, 68, 90, 1)"></path><path d="M1165.5 451.5L1144.5 472.5L1123.5 472.5M1144.5 451.5L1123.5 430.5L1102.5 409.5M1249.5 451.5L1228.5 472.5L1207.5 472.5L1186.5 472.5L1165.5 472.5L1144.5 493.5M1270.5 451.5L1249.5 430.5L1228.5 430.5M1102.5 451.5L1081.5 430.5M1459.5 451.5L1438.5 451.5L1417.5 451.5L1396.5 472.5L1375.5 472.5L1354.5 472.5L1333.5 472.5L1312.5 472.5L1291.5 472.5L1270.5 451.5L1249.5 451.5L1228.5 451.5L1207.5 451.5L1186.5 451.5L1165.5 451.5L1144.5 451.5L1123.5 451.5L1102.5 451.5L1081.5 451.5L1060.5 451.5" stroke="rgba(66, 68, 90, 1)" stroke-width="3.5"></path><path d="M1057 451.5 a3.5 3.5 0 1 0 7 0 a3.5 3.5 0 1 0 -7 0zM1120 472.5 a3.5 3.5 0 1 0 7 0 a3.5 3.5 0 1 0 -7 0zM1099 409.5 a3.5 3.5 0 1 0 7 0 a3.5 3.5 0 1 0 -7 0zM1141 493.5 a3.5 3.5 0 1 0 7 0 a3.5 3.5 0 1 0 -7 0zM1225 430.5 a3.5 3.5 0 1 0 7 0 a3.5 3.5 0 1 0 -7 0zM1078 430.5 a3.5 3.5 0 1 0 7 0 a3.5 3.5 0 1 0 -7 0z" fill="rgba(66, 68, 90, 1)"></path><path d="M1144.5 283.5L1123.5 262.5L1102.5 262.5L1081.5 262.5L1060.5 262.5L1039.5 241.5L1018.5 241.5L997.5 241.5M976.5 262.5L955.5 241.5L934.5 241.5L913.5 241.5M1207.5 304.5L1186.5 283.5M850.5 241.5L829.5 262.5L808.5 262.5L787.5 262.5M871.5 262.5L850.5 262.5L829.5 283.5M1249.5 304.5L1228.5 283.5L1207.5 283.5M829.5 241.5L808.5 220.5L787.5 220.5L766.5 220.5L745.5 220.5M934.5 262.5L913.5 283.5M1459.5 346.5L1438.5 346.5L1417.5 346.5L1396.5 325.5L1375.5 304.5L1354.5 304.5L1333.5 304.5L1312.5 304.5L1291.5 304.5L1270.5 304.5L1249.5 304.5L1228.5 304.5L1207.5 304.5L1186.5 304.5L1165.5 304.5L1144.5 283.5L1123.5 283.5L1102.5 283.5L1081.5 283.5L1060.5 283.5L1039.5 262.5L1018.5 262.5L997.5 262.5L976.5 262.5L955.5 262.5L934.5 262.5L913.5 262.5L892.5 262.5L871.5 262.5L850.5 241.5L829.5 241.5L808.5 241.5" stroke="rgba(86, 78, 117, 1)" stroke-width="3.5"></path><path d="M805 241.5 a3.5 3.5 0 1 0 7 0 a3.5 3.5 0 1 0 -7 0zM994 241.5 a3.5 3.5 0 1 0 7 0 a3.5 3.5 0 1 0 -7 0zM910 241.5 a3.5 3.5 0 1 0 7 0 a3.5 3.5 0 1 0 -7 0zM1183 283.5 a3.5 3.5 0 1 0 7 0 a3.5 3.5 0 1 0 -7 0zM784 262.5 a3.5 3.5 0 1 0 7 0 a3.5 3.5 0 1 0 -7 0zM826 283.5 a3.5 3.5 0 1 0 7 0 a3.5 3.5 0 1 0 -7 0zM1204 283.5 a3.5 3.5 0 1 0 7 0 a3.5 3.5 0 1 0 -7 0zM742 220.5 a3.5 3.5 0 1 0 7 0 a3.5 3.5 0 1 0 -7 0zM910 283.5 a3.5 3.5 0 1 0 7 0 a3.5 3.5 0 1 0 -7 0z" fill="rgba(86, 78, 117, 1)"></path><path d="M1186.5 535.5L1165.5 514.5L1144.5 514.5L1123.5 493.5M976.5 556.5L955.5 535.5L934.5 535.5M1249.5 493.5L1228.5 493.5L1207.5 493.5L1186.5 493.5L1165.5 493.5M1060.5 556.5L1039.5 535.5L1018.5 535.5L997.5 535.5M1123.5 535.5L1102.5 514.5L1081.5 514.5L1060.5 514.5L1039.5 514.5M934.5 556.5L913.5 556.5L892.5 556.5L871.5 556.5L850.5 556.5L829.5 556.5L808.5 577.5L787.5 577.5M1459.5 472.5L1438.5 472.5L1417.5 472.5L1396.5 493.5L1375.5 493.5L1354.5 493.5L1333.5 493.5L1312.5 493.5L1291.5 493.5L1270.5 493.5L1249.5 493.5L1228.5 514.5L1207.5 535.5L1186.5 535.5L1165.5 535.5L1144.5 535.5L1123.5 535.5L1102.5 535.5L1081.5 535.5L1060.5 556.5L1039.5 556.5L1018.5 556.5L997.5 556.5L976.5 556.5L955.5 556.5L934.5 556.5L913.5 577.5" stroke="rgba(66, 68, 90, 1)" stroke-width="3.5"></path><path d="M910 577.5 a3.5 3.5 0 1 0 7 0 a3.5 3.5 0 1 0 -7 0zM1120 493.5 a3.5 3.5 0 1 0 7 0 a3.5 3.5 0 1 0 -7 0zM931 535.5 a3.5 3.5 0 1 0 7 0 a3.5 3.5 0 1 0 -7 0zM1162 493.5 a3.5 3.5 0 1 0 7 0 a3.5 3.5 0 1 0 -7 0zM994 535.5 a3.5 3.5 0 1 0 7 0 a3.5 3.5 0 1 0 -7 0zM1036 514.5 a3.5 3.5 0 1 0 7 0 a3.5 3.5 0 1 0 -7 0zM784 577.5 a3.5 3.5 0 1 0 7 0 a3.5 3.5 0 1 0 -7 0z" fill="rgba(66, 68, 90, 1)"></path><path d="M1270.5 283.5L1249.5 283.5M1459.5 325.5L1438.5 325.5L1417.5 325.5L1396.5 304.5L1375.5 283.5L1354.5 283.5L1333.5 283.5L1312.5 283.5L1291.5 283.5L1270.5 283.5L1249.5 262.5L1228.5 262.5" stroke="rgba(86, 78, 117, 1)" stroke-width="3.5"></path><path d="M1225 262.5 a3.5 3.5 0 1 0 7 0 a3.5 3.5 0 1 0 -7 0zM1246 283.5 a3.5 3.5 0 1 0 7 0 a3.5 3.5 0 1 0 -7 0z" fill="rgba(86, 78, 117, 1)"></path><path d="M1312.5 514.5L1291.5 535.5L1270.5 535.5M1333.5 514.5L1312.5 535.5M1459.5 493.5L1438.5 493.5L1417.5 493.5L1396.5 514.5L1375.5 514.5L1354.5 514.5L1333.5 514.5L1312.5 514.5L1291.5 514.5L1270.5 514.5L1249.5 514.5L1228.5 535.5L1207.5 556.5L1186.5 556.5L1165.5 556.5L1144.5 556.5L1123.5 556.5L1102.5 556.5L1081.5 556.5L1060.5 577.5" stroke="rgba(66, 68, 90, 1)" stroke-width="3.5"></path><path d="M1057 577.5 a3.5 3.5 0 1 0 7 0 a3.5 3.5 0 1 0 -7 0zM1267 535.5 a3.5 3.5 0 1 0 7 0 a3.5 3.5 0 1 0 -7 0zM1309 535.5 a3.5 3.5 0 1 0 7 0 a3.5 3.5 0 1 0 -7 0z" fill="rgba(66, 68, 90, 1)"></path><path d="M1207.5 241.5L1186.5 241.5L1165.5 241.5L1144.5 241.5L1123.5 241.5M1459.5 304.5L1438.5 304.5L1417.5 304.5L1396.5 283.5L1375.5 262.5L1354.5 262.5L1333.5 262.5L1312.5 262.5L1291.5 262.5L1270.5 262.5L1249.5 241.5L1228.5 241.5L1207.5 241.5L1186.5 262.5" stroke="rgba(66, 68, 90, 1)" stroke-width="3.5"></path><path d="M1183 262.5 a3.5 3.5 0 1 0 7 0 a3.5 3.5 0 1 0 -7 0zM1120 241.5 a3.5 3.5 0 1 0 7 0 a3.5 3.5 0 1 0 -7 0z" fill="rgba(66, 68, 90, 1)"></path><path d="M1459.5 514.5L1438.5 514.5" stroke="rgba(86, 78, 117, 1)" stroke-width="3.5"></path><path d="M1435 514.5 a3.5 3.5 0 1 0 7 0 a3.5 3.5 0 1 0 -7 0z" fill="rgba(86, 78, 117, 1)"></path><path d="M1144.5 220.5L1123.5 199.5L1102.5 199.5M1081.5 220.5L1060.5 199.5L1039.5 178.5L1018.5 178.5L997.5 178.5M1102.5 220.5L1081.5 241.5L1060.5 241.5M1207.5 220.5L1186.5 199.5L1165.5 199.5L1144.5 199.5M1228.5 220.5L1207.5 199.5M1459.5 283.5L1438.5 283.5L1417.5 283.5L1396.5 262.5L1375.5 241.5L1354.5 241.5L1333.5 241.5L1312.5 241.5L1291.5 241.5L1270.5 241.5L1249.5 220.5L1228.5 220.5L1207.5 220.5L1186.5 220.5L1165.5 220.5L1144.5 220.5L1123.5 220.5L1102.5 220.5L1081.5 220.5L1060.5 220.5" stroke="rgba(86, 78, 117, 1)" stroke-width="3.5"></path><path d="M1057 220.5 a3.5 3.5 0 1 0 7 0 a3.5 3.5 0 1 0 -7 0zM1099 199.5 a3.5 3.5 0 1 0 7 0 a3.5 3.5 0 1 0 -7 0zM994 178.5 a3.5 3.5 0 1 0 7 0 a3.5 3.5 0 1 0 -7 0zM1057 241.5 a3.5 3.5 0 1 0 7 0 a3.5 3.5 0 1 0 -7 0zM1141 199.5 a3.5 3.5 0 1 0 7 0 a3.5 3.5 0 1 0 -7 0zM1204 199.5 a3.5 3.5 0 1 0 7 0 a3.5 3.5 0 1 0 -7 0z" fill="rgba(86, 78, 117, 1)"></path><path d="M1459.5 535.5L1438.5 535.5L1417.5 535.5L1396.5 535.5L1375.5 535.5L1354.5 535.5" stroke="rgba(66, 68, 90, 1)" stroke-width="3.5"></path><path d="M1351 535.5 a3.5 3.5 0 1 0 7 0 a3.5 3.5 0 1 0 -7 0z" fill="rgba(66, 68, 90, 1)"></path><path d="M1333.5 220.5L1312.5 199.5M1228.5 178.5L1207.5 157.5M1375.5 220.5L1354.5 199.5L1333.5 199.5L1312.5 178.5M1459.5 262.5L1438.5 262.5L1417.5 262.5L1396.5 241.5L1375.5 220.5L1354.5 220.5L1333.5 220.5L1312.5 220.5L1291.5 220.5L1270.5 220.5L1249.5 199.5L1228.5 178.5L1207.5 178.5L1186.5 178.5" stroke="rgba(66, 68, 90, 1)" stroke-width="3.5"></path><path d="M1183 178.5 a3.5 3.5 0 1 0 7 0 a3.5 3.5 0 1 0 -7 0zM1309 199.5 a3.5 3.5 0 1 0 7 0 a3.5 3.5 0 1 0 -7 0zM1204 157.5 a3.5 3.5 0 1 0 7 0 a3.5 3.5 0 1 0 -7 0zM1309 178.5 a3.5 3.5 0 1 0 7 0 a3.5 3.5 0 1 0 -7 0z" fill="rgba(66, 68, 90, 1)"></path><path d="M1375.5 556.5L1354.5 577.5L1333.5 577.5L1312.5 577.5L1291.5 577.5L1270.5 577.5M955.5 577.5L934.5 598.5L913.5 619.5L892.5 619.5M1060.5 598.5L1039.5 619.5L1018.5 619.5L997.5 619.5L976.5 619.5L955.5 619.5L934.5 619.5L913.5 640.5L892.5 640.5L871.5 661.5L850.5 682.5L829.5 682.5L808.5 682.5M1144.5 577.5L1123.5 598.5L1102.5 598.5L1081.5 598.5M976.5 577.5L955.5 598.5M997.5 577.5L976.5 598.5M1165.5 577.5L1144.5 598.5L1123.5 619.5L1102.5 619.5M1459.5 556.5L1438.5 556.5L1417.5 556.5L1396.5 556.5L1375.5 556.5L1354.5 556.5L1333.5 556.5L1312.5 556.5L1291.5 556.5L1270.5 556.5L1249.5 556.5L1228.5 556.5L1207.5 577.5L1186.5 577.5L1165.5 577.5L1144.5 577.5L1123.5 577.5L1102.5 577.5L1081.5 577.5L1060.5 598.5L1039.5 598.5L1018.5 577.5L997.5 577.5L976.5 577.5L955.5 577.5L934.5 577.5L913.5 598.5L892.5 598.5" stroke="rgba(66, 68, 90, 1)" stroke-width="3.5"></path><path d="M889 598.5 a3.5 3.5 0 1 0 7 0 a3.5 3.5 0 1 0 -7 0zM1267 577.5 a3.5 3.5 0 1 0 7 0 a3.5 3.5 0 1 0 -7 0zM889 619.5 a3.5 3.5 0 1 0 7 0 a3.5 3.5 0 1 0 -7 0zM805 682.5 a3.5 3.5 0 1 0 7 0 a3.5 3.5 0 1 0 -7 0zM1078 598.5 a3.5 3.5 0 1 0 7 0 a3.5 3.5 0 1 0 -7 0zM952 598.5 a3.5 3.5 0 1 0 7 0 a3.5 3.5 0 1 0 -7 0zM973 598.5 a3.5 3.5 0 1 0 7 0 a3.5 3.5 0 1 0 -7 0zM1099 619.5 a3.5 3.5 0 1 0 7 0 a3.5 3.5 0 1 0 -7 0z" fill="rgba(66, 68, 90, 1)"></path><path d="M1459.5 241.5L1438.5 241.5" stroke="rgba(86, 78, 117, 1)" stroke-width="3.5"></path><path d="M1435 241.5 a3.5 3.5 0 1 0 7 0 a3.5 3.5 0 1 0 -7 0z" fill="rgba(86, 78, 117, 1)"></path><path d="M1417.5 577.5L1396.5 577.5L1375.5 577.5M1438.5 577.5L1417.5 598.5M1396.5 598.5L1375.5 619.5L1354.5 619.5M1459.5 577.5L1438.5 577.5L1417.5 577.5L1396.5 598.5L1375.5 598.5L1354.5 598.5" stroke="rgba(86, 78, 117, 1)" stroke-width="3.5"></path><path d="M1351 598.5 a3.5 3.5 0 1 0 7 0 a3.5 3.5 0 1 0 -7 0zM1372 577.5 a3.5 3.5 0 1 0 7 0 a3.5 3.5 0 1 0 -7 0zM1414 598.5 a3.5 3.5 0 1 0 7 0 a3.5 3.5 0 1 0 -7 0zM1351 619.5 a3.5 3.5 0 1 0 7 0 a3.5 3.5 0 1 0 -7 0z" fill="rgba(86, 78, 117, 1)"></path><path d="M1438.5 220.5L1417.5 220.5L1396.5 199.5M1459.5 220.5L1438.5 220.5L1417.5 241.5" stroke="rgba(86, 78, 117, 1)" stroke-width="3.5"></path><path d="M1414 241.5 a3.5 3.5 0 1 0 7 0 a3.5 3.5 0 1 0 -7 0zM1393 199.5 a3.5 3.5 0 1 0 7 0 a3.5 3.5 0 1 0 -7 0z" fill="rgba(86, 78, 117, 1)"></path></g></g><defs><mask id="SvgjsMask1493"><rect width="1440" height="800" fill="#ffffff"></rect></mask></defs></svg>