<?xml version="1.0" encoding="iso-8859-1"?>
<!-- Uploaded to: SVG Repo, www.svgrepo.com, Generator: SVG Repo Mixer Tools -->
<svg height="800px" width="800px" version="1.1" id="Layer_1" xmlns="http://www.w3.org/2000/svg" xmlns:xlink="http://www.w3.org/1999/xlink" 
	 viewBox="0 0 512.034 512.034" xml:space="preserve">
<g transform="translate(1)">
	<g>
		<path style="fill:#00DA6C;" d="M237.95,307.234c-1.707,0-3.413-0.853-5.12-1.707c-3.413-2.56-5.12-7.68-1.707-11.947
			c2.56-4.267,67.413-97.28,7.68-195.413c-2.56-4.267-0.853-9.387,2.56-11.947c4.267-2.56,9.387-0.853,11.947,2.56
			c65.707,108.373-7.68,213.333-8.533,214.187C243.07,306.381,240.51,307.234,237.95,307.234z"/>
		<path style="fill:#00DA6C;" d="M135.55,8.567c8.533,0,102.4-5.973,102.4,85.333C128.724,95.607,135.55,19.661,135.55,8.567"/>
		<path style="fill:#00DA6C;" d="M169.684,170.701c5.973-1.707,75.093-22.187,91.307,47.787
			C179.924,239.821,171.39,179.234,169.684,170.701"/>
		<path style="fill:#00DA6C;" d="M383.017,221.901c-5.973-2.56-64-40.107-93.867,25.6
			C364.244,283.341,379.604,229.581,383.017,221.901"/>
		<path style="fill:#00DA6C;" d="M383.017,93.901c-8.533-1.707-99.84-23.04-121.173,66.56
			C368.51,186.914,380.457,104.141,383.017,93.901"/>
	</g>
	<polygon style="fill:#FFE100;" points="144.084,503.501 365.95,503.501 365.95,332.834 144.084,332.834 	"/>
	<polygon style="fill:#63D3FD;" points="365.95,409.634 306.217,469.367 255.017,418.167 203.817,469.367 144.084,409.634 
		144.084,358.434 203.817,418.167 255.017,366.967 306.217,418.167 365.95,358.434 	"/>
	<g>
		<polygon style="fill:#FFA800;" points="340.35,503.501 365.95,503.501 365.95,409.634 340.35,435.234 		"/>
		<polygon style="fill:#FFA800;" points="340.35,332.834 340.35,384.034 365.95,358.434 365.95,332.834 		"/>
	</g>
	<polygon style="fill:#3DB9F9;" points="340.35,435.234 365.95,409.634 365.95,358.434 340.35,384.034 	"/>
	<polygon style="fill:#FFE100;" points="135.55,332.834 374.484,332.834 374.484,298.701 135.55,298.701 	"/>
	<polygon style="fill:#FFA800;" points="348.884,332.834 374.484,332.834 374.484,298.701 348.884,298.701 	"/>
	<g>
		<polygon style="fill:#FFFFFF;" points="135.55,332.834 161.15,332.834 161.15,298.701 135.55,298.701 		"/>
		<polygon style="fill:#FFFFFF;" points="144.084,503.501 169.684,503.501 169.684,332.834 144.084,332.834 		"/>
	</g>
	<path d="M306.217,477.901c-2.56,0-4.267-0.853-5.973-2.56l-45.227-45.227l-45.227,45.227c-3.413,3.413-8.533,3.413-11.947,0
		l-59.733-59.733c-1.707-1.707-2.56-3.413-2.56-5.973v-51.2c0-3.413,1.707-6.827,5.12-7.68c3.413-1.707,6.827-0.853,9.387,1.707
		l53.76,53.76l45.227-45.227c3.413-3.413,8.533-3.413,11.947,0l45.227,45.227l53.76-53.76c2.56-2.56,5.973-3.413,9.387-1.707
		c3.413,1.707,5.12,4.267,5.12,7.68v51.2c0,2.56-0.853,4.267-2.56,5.973l-59.733,59.733
		C310.484,477.047,308.777,477.901,306.217,477.901z M255.017,409.634c2.56,0,4.267,0.853,5.973,2.56l45.227,45.227l51.2-51.2
		v-27.307l-45.227,45.227c-3.413,3.413-8.533,3.413-11.947,0l-45.227-45.227l-45.227,45.227c-3.413,3.413-8.533,3.413-11.947,0
		l-45.227-45.227v27.307l51.2,51.2l45.227-45.227C250.75,410.487,252.457,409.634,255.017,409.634z M365.95,409.634L365.95,409.634
		L365.95,409.634z"/>
	<path d="M374.484,341.367H135.55c-5.12,0-8.533-3.413-8.533-8.533v-34.133c0-5.12,3.413-8.533,8.533-8.533h238.933
		c5.12,0,8.533,3.413,8.533,8.533v34.133C383.017,337.954,379.604,341.367,374.484,341.367z M144.084,324.301H365.95v-17.067
		H144.084V324.301z"/>
	<path d="M365.95,512.034H144.084c-5.12,0-8.533-3.413-8.533-8.533V332.834c0-5.12,3.413-8.533,8.533-8.533H365.95
		c5.12,0,8.533,3.413,8.533,8.533v170.667C374.484,508.621,371.07,512.034,365.95,512.034z M152.617,494.967h204.8v-153.6h-204.8
		V494.967z"/>
	<path d="M408.617,512.034h-307.2c-5.12,0-8.533-3.413-8.533-8.533s3.413-8.533,8.533-8.533h307.2c5.12,0,8.533,3.413,8.533,8.533
		S413.737,512.034,408.617,512.034z"/>
	<path d="M229.417,307.234c-1.707,0-3.413-0.853-5.12-1.707c-3.413-2.56-5.12-7.68-1.707-11.947
		c2.56-4.267,67.413-97.28,7.68-195.413c-2.56-4.267-0.853-9.387,2.56-11.947c4.267-2.56,9.387-0.853,11.947,2.56
		c65.707,108.373-7.68,213.333-8.533,214.187C234.537,306.381,231.977,307.234,229.417,307.234z"/>
	<path d="M235.39,102.434c-38.4,0-67.413-9.387-86.187-28.16c-23.04-23.04-22.187-53.76-22.187-64V8.567
		c0-5.12,3.413-8.533,8.533-8.533h1.707c46.08-0.853,71.68,14.507,84.48,27.307c16.213,16.213,24.747,38.4,24.747,66.56
		c0,4.267-3.413,8.533-8.533,8.533C237.097,102.434,236.244,102.434,235.39,102.434z M144.084,17.101
		c0,11.093,2.56,30.72,17.067,45.227s37.547,22.187,68.267,23.04c-1.707-19.627-7.68-34.987-19.627-46.08
		C199.55,29.047,179.924,17.954,144.084,17.101z"/>
	<path d="M237.95,102.434c-2.56,0-5.12-0.853-6.827-3.413c-14.507-17.92-29.867-30.72-48.64-40.96
		c-4.267-1.707-5.12-6.827-3.413-11.093c2.56-4.267,7.68-5.12,11.947-3.413c20.48,11.093,37.547,25.6,53.76,44.373
		c3.413,3.413,2.56,9.387-0.853,11.947C242.217,101.581,239.657,102.434,237.95,102.434z"/>
	<path d="M245.63,277.367c-2.56,0-4.267-0.853-5.973-2.56c-3.413-3.413-3.413-8.533,0-11.947c12.8-12.8,27.307-17.067,46.08-23.04
		l1.707-0.853c4.267-1.707,9.387,0.853,10.24,5.973c1.707,4.267-0.853,9.387-5.973,10.24l-1.707,0.853
		c-17.067,5.12-29.013,8.533-38.4,18.773C249.897,276.514,248.19,277.367,245.63,277.367z"/>
	<path d="M228.564,230.434c-14.507,0-27.307-3.413-37.547-10.24c-22.187-14.507-27.307-38.4-29.013-46.08v-0.853
		c-0.853-4.267,1.707-9.387,5.973-10.24h0.853c25.6-6.827,49.493-4.267,67.413,5.973c15.36,9.387,25.6,25.6,30.72,46.933
		c0.853,4.267-1.707,9.387-5.973,10.24C248.19,228.727,237.95,230.434,228.564,230.434z M179.07,176.674
		c2.56,8.533,7.68,21.333,19.627,29.013c11.947,7.68,28.16,9.387,47.787,5.12c-4.267-13.653-11.947-22.187-21.333-29.013
		C214.057,174.967,198.697,174.114,179.07,176.674z"/>
	<path d="M334.377,267.981c-14.507,0-30.72-4.267-48.64-12.8c-4.267-1.707-5.973-6.827-4.267-11.093
		c9.387-21.333,23.04-34.987,40.107-40.107c18.773-5.973,40.107-2.56,63.147,10.24l1.707,0.853
		c4.267,1.707,5.973,6.827,4.267,11.093c0,0,0,0.853-0.853,1.707c-3.413,7.68-11.093,28.16-33.28,36.693
		C349.737,267.127,342.057,267.981,334.377,267.981z M301.097,243.234c20.48,8.533,36.693,10.24,49.493,5.12
		c11.947-5.12,18.773-15.36,22.187-22.187c-10.24-5.12-28.16-11.947-45.227-5.973C316.457,222.754,307.924,231.287,301.097,243.234z
		"/>
	<path d="M289.15,256.034c-3.413,0-5.973-1.707-7.68-4.267c-1.707-4.267-0.853-9.387,3.413-11.093
		c13.653-6.827,27.307-11.093,40.96-13.653c5.12-0.853,9.387,2.56,10.24,6.827c0.853,4.267-2.56,9.387-6.827,9.387
		c-12.8,1.707-23.893,5.973-36.693,11.947C291.71,256.034,290.857,256.034,289.15,256.034z"/>
	<path d="M259.284,227.874c-1.707,0-3.413,0-4.267-1.707c-3.413-1.707-5.973-4.267-9.387-5.973c-7.68-5.12-13.653-9.387-21.333-12.8
		c-4.267-1.707-5.973-6.827-3.413-11.093c1.707-4.267,6.827-5.973,11.093-3.413c7.68,4.267,14.507,8.533,22.187,13.653
		c2.56,1.707,5.973,3.413,8.533,5.973c4.267,2.56,5.12,7.68,2.56,11.947C264.404,226.167,261.844,227.874,259.284,227.874z"/>
	<path d="M301.95,174.114c-12.8,0-26.453-1.707-40.107-5.12c-4.267-0.853-7.68-5.973-5.973-10.24
		c22.187-95.573,117.76-75.947,128.853-73.387c4.267,0.853,7.68,5.973,5.973,10.24v1.707c-5.973,29.013-19.627,50.347-39.253,63.147
		C337.79,169.847,320.724,174.114,301.95,174.114z M274.644,154.487c29.013,5.973,51.2,3.413,68.267-7.68
		c20.48-12.8,27.307-33.28,29.867-46.08C349.737,96.461,293.417,94.754,274.644,154.487z"/>
	<path d="M263.55,167.287c-2.56,0-5.973-1.707-7.68-4.267c-2.56-4.267-0.853-9.387,2.56-11.947c6.827-4.267,12.8-7.68,18.773-11.947
		c17.067-11.093,32.427-21.333,52.907-26.453c4.267-0.853,9.387,1.707,10.24,5.973c0.853,4.267-1.707,9.387-5.973,10.24
		c-17.92,4.267-30.72,13.653-47.787,23.893c-5.973,4.267-12.8,8.533-18.773,11.947C266.964,167.287,265.257,167.287,263.55,167.287z
		"/>
</g>
</svg>